<svg width="37" height="37" viewBox="0 0 37 37" fill="none" xmlns="http://www.w3.org/2000/svg">
<path d="M18.5 5.48145C12.077 5.48145 6.85181 10.7067 6.85181 17.1296C6.85181 22.0026 9.86045 26.3193 14.3888 28.024V34.2592C14.3888 34.6381 14.6951 34.9444 15.074 34.9444H15.7592V36.3148C15.7592 36.6937 16.0655 37 16.4444 37H20.5555C20.9344 37 21.2407 36.6937 21.2407 36.3148V34.9444H21.9259C22.3048 34.9444 22.6111 34.6381 22.6111 34.2592V28.024C27.1395 26.3193 30.1481 22.0026 30.1481 17.1296C30.1481 10.7067 24.9229 5.48145 18.5 5.48145ZM20.5555 33.574C20.1766 33.574 19.8703 33.8803 19.8703 34.2592V35.6296H17.1296V34.2592C17.1296 33.8803 16.8233 33.574 16.4444 33.574H15.7592V30.1481H21.2407V33.574H20.5555ZM21.7121 26.888C21.4305 26.9805 21.2407 27.2436 21.2407 27.5389V28.7777H15.7592V27.5389C15.7592 27.2429 15.5694 26.9805 15.2878 26.888C11.0623 25.4984 8.22218 21.5764 8.22218 17.1296C8.22218 11.4624 12.8328 6.85182 18.5 6.85182C24.1671 6.85182 28.7777 11.4624 28.7777 17.1296C28.7777 21.5764 25.9376 25.4984 21.7121 26.888Z" fill="white"/>
<path d="M18.4999 4.11111C18.8788 4.11111 19.1851 3.80483 19.1851 3.42593V0.685185C19.1851 0.306278 18.8788 0 18.4999 0C18.121 0 17.8147 0.306278 17.8147 0.685185V3.42593C17.8147 3.80483 18.121 4.11111 18.4999 4.11111Z" fill="white"/>
<path d="M34.9445 16.4445H32.2037C31.8248 16.4445 31.5186 16.7507 31.5186 17.1296C31.5186 17.5086 31.8248 17.8148 32.2037 17.8148H34.9445C35.3234 17.8148 35.6297 17.5086 35.6297 17.1296C35.6297 16.7507 35.3234 16.4445 34.9445 16.4445Z" fill="white"/>
<path d="M4.79629 16.4445H2.05555C1.67664 16.4445 1.37036 16.7507 1.37036 17.1296C1.37036 17.5086 1.67664 17.8148 2.05555 17.8148H4.79629C5.17519 17.8148 5.48147 17.5086 5.48147 17.1296C5.48147 16.7507 5.17519 16.4445 4.79629 16.4445Z" fill="white"/>
<path d="M29.6438 5.01696L27.7061 6.95466C27.4382 7.22257 27.4382 7.65561 27.7061 7.92351C27.8397 8.05712 28.0151 8.12427 28.1905 8.12427C28.3659 8.12427 28.5413 8.05712 28.6749 7.92351L30.6126 5.98581C30.8805 5.7179 30.8805 5.28487 30.6126 5.01696C30.3447 4.74905 29.911 4.74974 29.6438 5.01696Z" fill="white"/>
<path d="M8.32491 26.3358L6.38721 28.2735C6.1193 28.5414 6.1193 28.9745 6.38721 29.2424C6.52082 29.376 6.69623 29.4431 6.87164 29.4431C7.04704 29.4431 7.22245 29.376 7.35606 29.2424L9.29377 27.3047C9.56167 27.0368 9.56167 26.6037 9.29377 26.3358C9.02586 26.0679 8.59282 26.0679 8.32491 26.3358Z" fill="white"/>
<path d="M28.6749 26.3358C28.407 26.0679 27.974 26.0679 27.7061 26.3358C27.4382 26.6037 27.4382 27.0368 27.7061 27.3047L29.6438 29.2424C29.7774 29.376 29.9528 29.4431 30.1282 29.4431C30.3036 29.4431 30.479 29.376 30.6126 29.2424C30.8805 28.9745 30.8805 28.5414 30.6126 28.2735L28.6749 26.3358Z" fill="white"/>
<path d="M8.32491 7.92353C8.45852 8.05714 8.63393 8.12429 8.80934 8.12429C8.98475 8.12429 9.16015 8.05714 9.29377 7.92353C9.56167 7.65562 9.56167 7.22258 9.29377 6.95467L7.35606 5.01697C7.08815 4.74906 6.65512 4.74906 6.38721 5.01697C6.1193 5.28488 6.1193 5.71792 6.38721 5.98582L8.32491 7.92353Z" fill="white"/>
<path d="M18.5001 8.90735C13.9662 8.90735 10.2778 12.5957 10.2778 17.1296C10.2778 17.5085 10.5841 17.8148 10.963 17.8148C11.3419 17.8148 11.6482 17.5085 11.6482 17.1296C11.6482 13.3515 14.7219 10.2777 18.5001 10.2777C18.879 10.2777 19.1852 9.97144 19.1852 9.59253C19.1852 9.21363 18.879 8.90735 18.5001 8.90735Z" fill="white"/>
</svg>
