<svg width="37" height="37" viewBox="0 0 37 37" fill="none" xmlns="http://www.w3.org/2000/svg">
<g clip-path="url(#clip0_232_487)">
<path d="M35.0952 14.3889H31.6336C31.0773 14.3889 30.6189 14.0826 30.4058 13.5687C30.1927 13.0548 30.3009 12.5135 30.6936 12.1202L33.141 9.67344C33.5008 9.31372 33.6988 8.83478 33.6988 8.32637C33.6988 7.81728 33.5008 7.33902 33.141 6.97861L30.0214 3.85896C29.3019 3.13952 28.0474 3.13815 27.3266 3.85896L24.8798 6.30576C24.4865 6.69837 23.9438 6.808 23.4313 6.59422C22.9174 6.38113 22.6111 5.92274 22.6111 5.36637V1.90481C22.6111 0.854426 21.7567 0 20.7063 0H16.2937C15.2433 0 14.3889 0.854426 14.3889 1.90481V5.36637C14.3889 5.92274 14.0826 6.38113 13.5687 6.59422C13.0562 6.80868 12.5135 6.69837 12.1202 6.30576L9.67344 3.85896C8.95263 3.13815 7.69806 3.13952 6.97861 3.85896L3.85896 6.97861C3.49924 7.33833 3.30122 7.81728 3.30122 8.32637C3.30122 8.83478 3.49924 9.31304 3.85896 9.67344L6.30644 12.1202C6.69906 12.5135 6.80663 13.0548 6.59422 13.5687C6.38181 14.0826 5.92274 14.3889 5.36637 14.3889H1.90481C0.854426 14.3889 0 15.2433 0 16.2937V20.7056C0 21.7567 0.854426 22.6111 1.90481 22.6111H5.36637C5.92274 22.6111 6.38113 22.9174 6.59422 23.4313C6.80731 23.9452 6.69906 24.4865 6.30644 24.8798L3.85896 27.3266C3.49924 27.6863 3.30122 28.1652 3.30122 28.6736C3.30122 29.1827 3.49924 29.661 3.85896 30.0214L6.97861 33.141C7.69874 33.8612 8.95263 33.8625 9.67344 33.141L12.1202 30.6936C12.5135 30.3009 13.0541 30.1927 13.5687 30.4058C14.0826 30.6189 14.3889 31.0773 14.3889 31.6336V35.0952C14.3889 36.1456 15.2433 37 16.2937 37H20.7056C21.756 37 22.6104 36.1456 22.6104 35.0952V31.6336C22.6104 31.0773 22.9167 30.6189 23.4306 30.4058C23.9452 30.192 24.4858 30.3009 24.8791 30.6936L27.3259 33.141C28.0467 33.8619 29.3013 33.8605 30.0207 33.141L33.1404 30.0214C33.5001 29.6617 33.6981 29.1827 33.6981 28.6736C33.6981 28.1652 33.5001 27.687 33.1404 27.3266L30.6929 24.8798C30.3003 24.4865 30.1927 23.9452 30.4051 23.4313C30.6175 22.9174 31.0773 22.6111 31.6336 22.6111H35.0952C36.1456 22.6111 37 21.7567 37 20.7063V16.2937C37 15.2433 36.1456 14.3889 35.0952 14.3889ZM35.6296 20.7063C35.6296 21.0009 35.3898 21.2407 35.0952 21.2407H31.6336C30.5209 21.2407 29.5651 21.8793 29.1396 22.9071C28.7134 23.9349 28.9374 25.0627 29.7247 25.8493L32.1722 28.2961C32.3812 28.5051 32.3812 28.8442 32.1722 29.0525L29.0525 32.1722C28.8442 32.3805 28.5051 32.3819 28.2961 32.1722L25.8493 29.7247C25.062 28.9374 23.9349 28.7147 22.9071 29.1396C21.8793 29.5651 21.2407 30.5209 21.2407 31.6336V35.0952C21.2407 35.3898 21.0009 35.6296 20.7063 35.6296H16.2937C15.9991 35.6296 15.7593 35.3898 15.7593 35.0952V31.6336C15.7593 30.5209 15.1207 29.5651 14.0929 29.1396C13.7482 28.9964 13.3933 28.9265 13.0425 28.9265C12.3477 28.9265 11.6742 29.2005 11.1507 29.724L8.70391 32.1715C8.49424 32.3812 8.15507 32.3798 7.94746 32.1715L4.82782 29.0519C4.61883 28.8429 4.61883 28.5037 4.82782 28.2954L7.2753 25.8486C8.06189 25.062 8.28663 23.9342 7.86044 22.9064C7.43494 21.8793 6.47911 21.2407 5.36637 21.2407H1.90481C1.61019 21.2407 1.37037 21.0009 1.37037 20.7063V16.2937C1.37037 15.9991 1.61019 15.7593 1.90481 15.7593H5.36637C6.47911 15.7593 7.43494 15.1207 7.86044 14.0929C8.28663 13.0651 8.06257 11.9373 7.2753 11.1507L4.82782 8.70391C4.61883 8.49493 4.61883 8.15576 4.82782 7.94746L7.94746 4.82782C8.15576 4.61883 8.49493 4.61883 8.70391 4.82782L11.1507 7.27461C11.9366 8.06052 13.0637 8.28594 14.0929 7.85976C15.1207 7.43494 15.7593 6.47911 15.7593 5.36637V1.90481C15.7593 1.61019 15.9991 1.37037 16.2937 1.37037H20.7056C21.0009 1.37037 21.2407 1.61019 21.2407 1.90481V5.36637C21.2407 6.47911 21.8793 7.43494 22.9071 7.86044C23.9363 8.28663 25.0627 8.06189 25.8493 7.2753L28.2961 4.8285C28.5058 4.61952 28.8449 4.61952 29.0525 4.8285L32.1722 7.94815C32.3812 8.15713 32.3812 8.4963 32.1722 8.70459L29.7247 11.1514C28.9381 11.938 28.7134 13.0658 29.1396 14.0936C29.5651 15.1214 30.5209 15.7599 31.6336 15.7599H35.0952C35.3898 15.7593 35.6296 15.9991 35.6296 16.2937V20.7063Z" fill="white"/>
<path d="M18.4999 12.3334C15.0993 12.3334 12.3333 15.0995 12.3333 18.5C12.3333 21.9006 15.0993 24.6667 18.4999 24.6667C21.9005 24.6667 24.6666 21.9006 24.6666 18.5C24.6666 15.0995 21.9005 12.3334 18.4999 12.3334ZM18.4999 23.2963C15.8558 23.2963 13.7036 21.1442 13.7036 18.5C13.7036 15.8559 15.8558 13.7037 18.4999 13.7037C21.144 13.7037 23.2962 15.8559 23.2962 18.5C23.2962 21.1442 21.144 23.2963 18.4999 23.2963Z" fill="white"/>
</g>
<defs>
<clipPath id="clip0_232_487">
<rect width="37" height="37" fill="white"/>
</clipPath>
</defs>
</svg>
