<svg width="37" height="37" viewBox="0 0 37 37" fill="none" xmlns="http://www.w3.org/2000/svg">
<path d="M23.9969 0H4.0083V37H32.9916V8.9947L23.9969 0ZM24.3583 2.1053L30.8863 8.63333H24.3583V2.1053ZM5.24163 35.7667V1.23333H23.125V9.86667H31.7583V35.7667H5.24163Z" fill="white"/>
<path d="M26.2082 12.95H16.3415C16.0011 12.95 15.7249 13.2256 15.7249 13.5666C15.7249 13.9076 16.0011 14.1833 16.3415 14.1833H26.2082C26.5486 14.1833 26.8249 13.9076 26.8249 13.5666C26.8249 13.2256 26.5486 12.95 26.2082 12.95Z" fill="white"/>
<path d="M14.1062 11.2349L11.4539 13.3569L10.6109 12.5139C10.3698 12.2728 9.98006 12.2728 9.73894 12.5139C9.49783 12.755 9.49783 13.1448 9.73894 13.3859L10.9723 14.6192C11.0919 14.7388 11.2498 14.7999 11.4083 14.7999C11.5439 14.7999 11.6802 14.7555 11.7931 14.6648L14.8764 12.1982C15.1428 11.9848 15.1853 11.5969 14.9726 11.3311C14.7605 11.0647 14.372 11.0222 14.1062 11.2349Z" fill="white"/>
<path d="M26.2082 19.7334H16.3415C16.0011 19.7334 15.7249 20.009 15.7249 20.3501C15.7249 20.6911 16.0011 20.9667 16.3415 20.9667H26.2082C26.5486 20.9667 26.8249 20.6911 26.8249 20.3501C26.8249 20.009 26.5486 19.7334 26.2082 19.7334Z" fill="white"/>
<path d="M14.1062 18.0184L11.4539 20.1403L10.6109 19.2974C10.3698 19.0562 9.98006 19.0562 9.73894 19.2974C9.49783 19.5385 9.49783 19.9282 9.73894 20.1693L10.9723 21.4027C11.0919 21.5223 11.2498 21.5833 11.4083 21.5833C11.5439 21.5833 11.6802 21.5389 11.7931 21.4483L14.8764 18.9816C15.1428 18.7683 15.1853 18.3804 14.9726 18.1146C14.7605 17.8482 14.372 17.8056 14.1062 18.0184Z" fill="white"/>
<path d="M26.2082 26.5166H16.3415C16.0011 26.5166 15.7249 26.7923 15.7249 27.1333C15.7249 27.4743 16.0011 27.7499 16.3415 27.7499H26.2082C26.5486 27.7499 26.8249 27.4743 26.8249 27.1333C26.8249 26.7923 26.5486 26.5166 26.2082 26.5166Z" fill="white"/>
<path d="M14.1062 24.8018L11.4539 26.9238L10.6109 26.0808C10.3698 25.8397 9.98006 25.8397 9.73894 26.0808C9.49783 26.3219 9.49783 26.7117 9.73894 26.9528L10.9723 28.1861C11.0919 28.3057 11.2498 28.3668 11.4083 28.3668C11.5439 28.3668 11.6802 28.3224 11.7931 28.2317L14.8764 25.7651C15.1428 25.5517 15.1853 25.1638 14.9726 24.898C14.7605 24.6316 14.372 24.5891 14.1062 24.8018Z" fill="white"/>
</svg>
