<svg width="37" height="37" viewBox="0 0 37 37" fill="none" xmlns="http://www.w3.org/2000/svg">
<g clip-path="url(#clip0_232_510)">
<path d="M18.7142 16.0803C21.0485 16.0803 22.9485 14.1803 22.9485 11.8461C22.9485 9.51178 21.0485 7.61182 18.7142 7.61182C16.3799 7.61182 14.48 9.51178 14.48 11.8461C14.48 14.1803 16.3793 16.0803 18.7142 16.0803ZM18.7142 8.8216C20.3819 8.8216 21.7387 10.1784 21.7387 11.8461C21.7387 13.5137 20.3819 14.8705 18.7142 14.8705C17.0465 14.8705 15.6898 13.5137 15.6898 11.8461C15.6898 10.1784 17.0465 8.8216 18.7142 8.8216Z" fill="white"/>
<path d="M30.3752 22.7341H26.0436L27.8867 20.0726C31.3679 15.4325 30.864 7.80542 26.8094 3.75144C24.6191 1.56052 21.7059 0.35376 18.6071 0.35376C15.5088 0.35376 12.5957 1.56052 10.4047 3.75144C6.35015 7.80542 5.84628 15.4331 9.31351 20.0545L11.1693 22.7347H6.62477L0 36.6466H37L30.3752 22.7341ZM10.2953 19.3467C7.15042 15.153 7.60107 8.26513 11.2607 4.60615C13.2229 2.64388 15.8324 1.56294 18.6077 1.56294C21.3829 1.56294 23.9918 2.64388 25.9547 4.60615C29.6143 8.26513 30.0649 15.1536 26.9062 19.3649L18.6071 31.3496L12.641 22.7341L10.2953 19.3467ZM7.38935 23.9439H12.0071L18.6071 33.4752L25.2064 23.9439H29.6106L35.0837 35.4369H1.9163L7.38935 23.9439Z" fill="white"/>
</g>
<defs>
<clipPath id="clip0_232_510">
<rect width="37" height="37" fill="white"/>
</clipPath>
</defs>
</svg>
