<svg width="37" height="37" viewBox="0 0 37 37" fill="none" xmlns="http://www.w3.org/2000/svg">
<path d="M33.9253 27.99L28.0343 25.0448C27.4787 24.7666 27.1333 24.2079 27.1333 23.5863V21.5014C27.2745 21.3287 27.4232 21.132 27.5767 20.9149C28.3408 19.8358 28.9531 18.6345 29.3983 17.3389C30.2685 16.9399 30.8333 16.0797 30.8333 15.1084V12.6417C30.8333 12.0479 30.6113 11.4725 30.2167 11.023V7.74295C30.2512 7.40378 30.3869 5.38481 28.9266 3.7192C27.66 2.27435 25.6046 1.54175 22.8167 1.54175C20.0287 1.54175 17.9734 2.27435 16.7067 3.71858C15.8218 4.72806 15.524 5.8652 15.4339 6.68166C14.377 6.1353 13.1313 5.85841 11.7167 5.85841C5.31012 5.85841 4.93703 11.319 4.93333 11.4084V14.2321C4.53373 14.6675 4.31667 15.1701 4.31667 15.669V17.7989C4.31667 18.4643 4.61452 19.0847 5.12512 19.504C5.63387 21.4218 6.88508 22.871 7.37225 23.3798V25.0713C7.37225 25.5566 7.10832 26.0018 6.65013 26.2522L2.54745 28.8255C0.976183 29.6827 0 31.3274 0 33.1169V35.4584H8.63333H9.86667H37V32.9652C37 30.8451 35.8216 28.9384 33.9253 27.99ZM8.63333 32.845V34.2251H1.23333V33.1169C1.23333 31.7788 1.96347 30.5491 3.17028 29.8899L7.27235 27.3166C8.09437 26.8682 8.60497 26.0086 8.60497 25.0713V22.8568L8.40887 22.6737C8.39283 22.6589 6.75435 21.111 6.27027 19.0014L6.21415 18.7572L6.00325 18.6216C5.71958 18.4378 5.55 18.1301 5.55 17.7989V15.669C5.55 15.447 5.70108 15.183 5.96378 14.945L6.16667 14.7618L6.16543 11.4442C6.17653 11.2672 6.49782 7.09175 11.7167 7.09175C13.1924 7.09175 14.4349 7.43277 15.4167 8.10555V11.023C15.022 11.4725 14.8 12.0479 14.8 12.6417V15.1084C14.8 15.2959 14.8216 15.4803 14.8623 15.6591C14.8789 15.7306 14.9122 15.796 14.9351 15.8651C14.969 15.9687 14.9961 16.0753 15.0436 16.1734C15.0442 16.1746 15.0448 16.1752 15.0454 16.1765C15.2033 16.5021 15.4333 16.7931 15.7232 17.0256C15.7262 17.0373 15.7299 17.0478 15.733 17.0589C15.77 17.2001 15.8089 17.3407 15.8508 17.4783L15.9008 17.6392C15.9094 17.6676 15.9199 17.6966 15.9291 17.7249C15.9507 17.7915 15.9717 17.8575 15.9939 17.9229C16.0309 18.0308 16.0697 18.1424 16.1147 18.2639C16.1339 18.3145 16.1548 18.3601 16.1746 18.41C16.2251 18.5389 16.2757 18.6635 16.3287 18.7868C16.3417 18.8164 16.3528 18.8485 16.3657 18.8775L16.4002 18.9552C16.4163 18.9909 16.4329 19.023 16.449 19.0582C16.5094 19.1901 16.5686 19.3178 16.6303 19.4411C16.6401 19.4608 16.6494 19.4824 16.6593 19.5022C16.6981 19.5792 16.7369 19.652 16.7758 19.726C16.8424 19.853 16.9078 19.9727 16.9731 20.0886C17.0052 20.1453 17.0366 20.2008 17.0681 20.2545C17.1569 20.4062 17.2414 20.5456 17.3234 20.6751C17.3413 20.7028 17.3586 20.7318 17.3758 20.7583C17.5251 20.9896 17.6546 21.177 17.7619 21.3232C17.7902 21.362 17.8149 21.3953 17.8389 21.428C17.8525 21.4459 17.871 21.4718 17.8827 21.4878V23.5284C17.8827 24.1253 17.5571 24.6729 17.0336 24.959L15.4019 25.8489L15.1176 25.8236L15.0016 26.0672L11.5323 27.9597C9.74395 28.9365 8.63333 30.8075 8.63333 32.845ZM35.7667 34.2251H9.86667V32.845C9.86667 31.2595 10.7312 29.8023 12.1231 29.0438L17.6243 26.0431C18.545 25.5406 19.1167 24.5767 19.1167 23.529V21.0512L18.997 20.9075L18.9736 20.8798C18.9724 20.8779 18.9341 20.8317 18.8719 20.7503C18.8682 20.7454 18.8645 20.7404 18.8601 20.7355C18.8274 20.6929 18.7892 20.6418 18.7454 20.5807C18.7448 20.5795 18.7442 20.5789 18.7436 20.5776C18.6517 20.45 18.5364 20.2841 18.4081 20.0843C18.405 20.08 18.4026 20.075 18.3995 20.0707C18.3391 19.9764 18.2749 19.8734 18.2095 19.7642C18.2046 19.7562 18.1997 19.7482 18.1947 19.7396C18.0554 19.5059 17.9074 19.2413 17.76 18.9484C17.76 18.9484 17.7594 18.9478 17.7594 18.9472C17.6811 18.7899 17.6028 18.6246 17.5263 18.4526C17.5158 18.4285 17.5047 18.4051 17.4942 18.3811C17.4603 18.304 17.4264 18.2232 17.3918 18.1399C17.3795 18.1097 17.3672 18.0783 17.3549 18.0474C17.3228 17.9667 17.2901 17.8853 17.2556 17.7921C17.1927 17.6244 17.1335 17.4493 17.0767 17.2686L17.0428 17.1588C17.0391 17.1465 17.0348 17.1342 17.0311 17.1212C16.9731 16.9263 16.9176 16.7272 16.8708 16.5224L16.8146 16.2782L16.6044 16.1426C16.2467 15.9119 16.0333 15.5253 16.0333 15.1084V12.6417C16.0333 12.2958 16.1801 11.9733 16.4465 11.7322L16.65 11.549V7.70842V7.49011L16.6334 7.47716C16.6124 7.03193 16.6389 5.66725 17.6342 4.53196C18.656 3.36585 20.4 2.77508 22.8167 2.77508C25.2248 2.77508 26.965 3.36153 27.988 4.51901C29.1887 5.8763 28.9901 7.61283 28.9889 7.62763L28.9833 11.549L29.1868 11.7328C29.4532 11.9733 29.6 12.2958 29.6 12.6417V15.1084C29.6 15.6468 29.2473 16.1179 28.7231 16.2795L28.416 16.3738L28.3173 16.6791C27.9048 17.9623 27.3171 19.1476 26.5697 20.2021C26.3865 20.4617 26.2083 20.6917 26.0536 20.8675L25.9 21.0426V23.5863C25.9 24.6778 26.5062 25.659 27.4824 26.1474L33.3734 29.0926C34.8497 29.8307 35.7667 31.3144 35.7667 32.9652V34.2251Z" fill="white"/>
</svg>
