<svg width="37" height="37" viewBox="0 0 37 37" fill="none" xmlns="http://www.w3.org/2000/svg">
<g clip-path="url(#clip0_232_491)">
<path d="M26.2671 0H10.7333C9.236 0 8.01685 1.21915 8.01685 2.71642V34.283C8.01685 35.7809 9.236 37 10.7333 37H26.2665C27.7644 37 28.9835 35.7808 28.9835 34.2836V2.71642C28.9835 1.21915 27.7644 0 26.2671 0ZM9.25018 4.93333H27.7502V28.3667H9.25018V4.93333ZM10.7333 1.23333H26.2665C27.0848 1.23333 27.7502 1.89872 27.7502 2.71642V3.7H9.25018V2.71642C9.25018 1.89872 9.91556 1.23333 10.7333 1.23333ZM26.2671 35.7667H10.7333C9.91556 35.7667 9.25018 35.1013 9.25018 34.2836V29.6H27.7502V34.2836C27.7502 35.1013 27.0848 35.7667 26.2671 35.7667Z" fill="white"/>
<path d="M18.5001 30.2167C17.1397 30.2167 16.0334 31.323 16.0334 32.6833C16.0334 34.0437 17.1397 35.15 18.5001 35.15C19.8605 35.15 20.9668 34.0437 20.9668 32.6833C20.9668 31.323 19.8605 30.2167 18.5001 30.2167ZM18.5001 33.9167C17.8199 33.9167 17.2668 33.3635 17.2668 32.6833C17.2668 32.0032 17.8199 31.45 18.5001 31.45C19.1803 31.45 19.7334 32.0032 19.7334 32.6833C19.7334 33.3635 19.1803 33.9167 18.5001 33.9167Z" fill="white"/>
<path d="M16.0334 3.08331H18.5001C18.8411 3.08331 19.1167 2.80766 19.1167 2.46664C19.1167 2.12563 18.8411 1.84998 18.5001 1.84998H16.0334C15.6924 1.84998 15.4167 2.12563 15.4167 2.46664C15.4167 2.80766 15.6924 3.08331 16.0334 3.08331Z" fill="white"/>
<path d="M20.3501 3.08331H20.9667C21.3077 3.08331 21.5834 2.80766 21.5834 2.46664C21.5834 2.12563 21.3077 1.84998 20.9667 1.84998H20.3501C20.009 1.84998 19.7334 2.12563 19.7334 2.46664C19.7334 2.80766 20.009 3.08331 20.3501 3.08331Z" fill="white"/>
<path d="M34.911 2.81756C34.6698 2.57644 34.2801 2.57644 34.039 2.81756C33.7979 3.05867 33.7979 3.44841 34.039 3.68952C36.3429 5.99339 36.3429 9.74211 34.039 12.0466C33.7979 12.2877 33.7979 12.6774 34.039 12.9186C34.1592 13.0388 34.3171 13.0992 34.475 13.0992C34.6328 13.0992 34.7907 13.0388 34.911 12.9186C37.6958 10.1343 37.6958 5.60242 34.911 2.81756Z" fill="white"/>
<path d="M32.314 4.22112C32.0729 3.98 31.6832 3.98 31.4421 4.22112C31.201 4.46224 31.201 4.85197 31.4421 5.09309C32.2049 5.8559 32.6248 6.87217 32.6248 7.9538C32.6248 9.03544 32.2049 10.0511 31.4421 10.8139C31.201 11.055 31.201 11.4448 31.4421 11.6859C31.5623 11.8061 31.7202 11.8666 31.8781 11.8666C32.0359 11.8666 32.1938 11.8061 32.314 11.6859C33.31 10.6906 33.8582 9.36474 33.8582 7.9538C33.8582 6.54287 33.3106 5.21642 32.314 4.22112Z" fill="white"/>
<path d="M2.96135 3.68952C3.20247 3.44841 3.20247 3.05867 2.96135 2.81756C2.72023 2.57644 2.3305 2.57644 2.08938 2.81756C-0.695484 5.60242 -0.695484 10.1337 2.08938 12.9186C2.20963 13.0388 2.3675 13.0992 2.52537 13.0992C2.68323 13.0992 2.8411 13.0388 2.96135 12.9186C3.20247 12.6774 3.20247 12.2877 2.96135 12.0466C0.656866 9.74272 0.656866 5.99401 2.96135 3.68952Z" fill="white"/>
<path d="M5.55819 4.05083C5.31707 3.80972 4.92734 3.80972 4.68622 4.05083C3.69031 5.04613 3.14209 6.37197 3.14209 7.7829C3.14209 9.19383 3.69031 10.5197 4.68622 11.5156C4.80647 11.6358 4.96434 11.6963 5.12221 11.6963C5.28007 11.6963 5.43794 11.6358 5.55819 11.5156C5.79931 11.2745 5.79931 10.8847 5.55819 10.6436C4.79537 9.8808 4.37542 8.86453 4.37542 7.7829C4.37542 6.70127 4.79476 5.68562 5.55819 4.9228C5.79869 4.6823 5.79869 4.29195 5.55819 4.05083Z" fill="white"/>
</g>
<defs>
<clipPath id="clip0_232_491">
<rect width="37" height="37" fill="white"/>
</clipPath>
</defs>
</svg>
