<svg width="29" height="29" viewBox="0 0 29 29" fill="none" xmlns="http://www.w3.org/2000/svg">
<path fill-rule="evenodd" clip-rule="evenodd" d="M9.69569 6.84748C9.18409 6.34314 9.18409 5.52545 9.69569 5.02111L13.5033 1.26757C14.0149 0.763228 14.8444 0.763228 15.356 1.26757L19.1636 5.02111C19.6752 5.52545 19.6752 6.34314 19.1636 6.84748L15.356 10.601C14.8444 11.1054 14.0149 11.1054 13.5033 10.601L9.69569 6.84748ZM13.7315 14.9513C13.4757 14.6991 13.4757 14.2902 13.7315 14.0381L13.9844 13.7888C14.2402 13.5366 14.6549 13.5366 14.9107 13.7888L15.1636 14.0381C15.4194 14.2902 15.4194 14.6991 15.1636 14.9513L14.9107 15.2006C14.6549 15.4527 14.2402 15.4527 13.9844 15.2006L13.7315 14.9513ZM18.6816 13.6008C18.17 14.1051 18.17 14.9228 18.6816 15.4272L22.4893 19.1807C23.0009 19.6851 23.8303 19.6851 24.342 19.1807L28.1496 15.4272C28.6612 14.9228 28.6612 14.1051 28.1496 13.6008L24.342 9.84727C23.8303 9.34293 23.0009 9.34293 22.4893 9.84727L18.6816 13.6008ZM0.765357 15.4175C0.253752 14.9132 0.253751 14.0955 0.765357 13.5912L4.57298 9.83761C5.08459 9.33328 5.91406 9.33328 6.42567 9.83761L10.2333 13.5912C10.7449 14.0955 10.7449 14.9132 10.2333 15.4175L6.42567 19.1711C5.91406 19.6754 5.08459 19.6754 4.57298 19.1711L0.765357 15.4175ZM9.69569 22.1194C9.18409 22.6238 9.18409 23.4415 9.69569 23.9458L13.5033 27.6994C14.0149 28.2037 14.8444 28.2037 15.356 27.6994L19.1636 23.9458C19.6752 23.4415 19.6752 22.6238 19.1636 22.1194L15.356 18.3659C14.8444 17.8616 14.0149 17.8616 13.5033 18.3659L9.69569 22.1194Z" fill="#2196F3"/>
</svg>
