<svg width="31" height="31" viewBox="0 0 31 31" fill="none" xmlns="http://www.w3.org/2000/svg">
<path d="M15.5789 3.23871C22.6861 3.23871 28.0667 9.06591 28.0667 15.7327C28.0667 23.4647 21.7602 28.2643 15.5538 28.2643C13.5017 28.2643 11.2244 27.713 9.39753 26.6352C8.75937 26.2468 8.22132 25.9585 7.53312 26.1841L5.00553 26.936C4.36737 27.1365 3.79178 26.6352 3.97948 25.9585L4.81784 23.1514C4.95548 22.763 4.93045 22.3494 4.73025 22.0236C3.65414 20.0436 3.04102 17.8756 3.04102 15.7703C3.04102 9.17869 8.30891 3.23871 15.5789 3.23871ZM21.2972 14.1788C20.4088 14.1788 19.6956 14.8931 19.6956 15.7829C19.6956 16.6601 20.4088 17.3869 21.2972 17.3869C22.1856 17.3869 22.8989 16.6601 22.8989 15.7829C22.8989 14.8931 22.1856 14.1788 21.2972 14.1788ZM15.5288 14.1788C14.6529 14.1663 13.9272 14.8931 13.9272 15.7703C13.9272 16.6601 14.6404 17.3744 15.5288 17.3869C16.4172 17.3869 17.1305 16.6601 17.1305 15.7829C17.1305 14.8931 16.4172 14.1788 15.5288 14.1788ZM9.7604 14.1788C8.87199 14.1788 8.15876 14.8931 8.15876 15.7829C8.15876 16.6601 8.8845 17.3869 9.7604 17.3869C10.6488 17.3744 11.362 16.6601 11.362 15.7829C11.362 14.8931 10.6488 14.1788 9.7604 14.1788Z" fill="#EFF2F4"/>
</svg>
