<svg width="31" height="31" viewBox="0 0 31 31" fill="none" xmlns="http://www.w3.org/2000/svg">
<path d="M21.3914 3.06704C23.1914 2.95454 24.9664 3.57954 26.3039 4.80452C27.5289 6.14201 28.1539 7.917 28.0539 9.72948V21.4044C28.1664 23.2169 27.5289 24.9918 26.3164 26.3293C24.9789 27.5543 23.1914 28.1793 21.3914 28.0668H9.71644C7.90394 28.1793 6.12895 27.5543 4.79145 26.3293C3.56645 24.9918 2.94145 23.2169 3.05395 21.4044V9.72948C2.94145 7.917 3.56645 6.14201 4.79145 4.80452C6.12895 3.57954 7.90394 2.95454 9.71644 3.06704H21.3914ZM21.0664 8.77949C20.2914 8.0045 19.0414 8.0045 18.2664 8.77949L17.4289 9.62948C17.3039 9.75448 17.3039 9.96698 17.4289 10.092C17.4289 10.092 17.4535 10.1164 17.4971 10.1598L17.8046 10.4656C17.9825 10.6425 18.2045 10.8635 18.4274 11.0857L19.1833 11.8412C19.341 11.9997 19.4456 12.1058 19.4539 12.117C19.5914 12.267 19.6789 12.467 19.6789 12.692C19.6789 13.1419 19.3164 13.5169 18.8539 13.5169C18.6414 13.5169 18.4414 13.4294 18.3039 13.2919L16.2164 11.217C16.1164 11.117 15.9414 11.117 15.8414 11.217L9.87894 17.1794C9.46644 17.5919 9.22894 18.1419 9.21644 18.7294L9.14144 21.6919C9.14144 21.8544 9.19144 22.0044 9.30394 22.1169C9.41644 22.2294 9.56644 22.2919 9.72894 22.2919H12.6664C13.2664 22.2919 13.8414 22.0544 14.2789 21.6294L22.6914 13.1919C23.4539 12.417 23.4539 11.167 22.6914 10.4045L21.0664 8.77949Z" fill="white"/>
</svg>
