<svg width="31" height="31" viewBox="0 0 31 31" fill="none" xmlns="http://www.w3.org/2000/svg">
<path d="M23.7637 18.4016C26.1411 18.4016 28.0667 20.2948 28.0667 22.6305C28.0667 24.9649 26.1411 26.8581 23.7637 26.8581C21.3876 26.8581 19.4607 24.9649 19.4607 22.6305C19.4607 20.2948 21.3876 18.4016 23.7637 18.4016ZM13.1555 20.8271C14.1968 20.8271 15.0421 21.6576 15.0421 22.6806C15.0421 23.7024 14.1968 24.5342 13.1555 24.5342H4.92766C3.88632 24.5342 3.04102 23.7024 3.04102 22.6806C3.04102 21.6576 3.88632 20.8271 4.92766 20.8271H13.1555ZM7.34401 4.61304C9.72143 4.61304 11.647 6.50621 11.647 8.84057C11.647 11.1763 9.72143 13.0695 7.34401 13.0695C4.96798 13.0695 3.04102 11.1763 3.04102 8.84057C3.04102 6.50621 4.96798 4.61304 7.34401 4.61304ZM26.1814 6.98838C27.2213 6.98838 28.0667 7.81886 28.0667 8.84057C28.0667 9.86365 27.2213 10.6941 26.1814 10.6941H17.9536C16.9122 10.6941 16.0669 9.86365 16.0669 8.84057C16.0669 7.81886 16.9122 6.98838 17.9536 6.98838H26.1814Z" fill="#EFF2F4"/>
</svg>
