<svg width="25" height="26" viewBox="0 0 25 26" fill="none" xmlns="http://www.w3.org/2000/svg">
<path d="M8.9686 23.4833V19.6572C8.9686 18.6806 9.76616 17.8888 10.75 17.8888H14.3464C14.8189 17.8888 15.272 18.0751 15.606 18.4068C15.9401 18.7384 16.1278 19.1882 16.1278 19.6572V23.4833C16.1248 23.8894 16.2852 24.2798 16.5734 24.568C16.8616 24.8561 17.2537 25.0182 17.6627 25.0182H20.1163C21.2623 25.0212 22.3623 24.5713 23.1736 23.7679C23.985 22.9646 24.441 21.8737 24.441 20.7361V9.83623C24.441 8.91729 24.0306 8.04562 23.3206 7.45605L14.9738 0.838272C13.5219 -0.322051 11.4416 -0.284587 10.033 0.92725L1.87663 7.45605C1.13303 8.02824 0.688589 8.90249 0.666626 9.83623V20.725C0.666626 23.0961 2.60284 25.0182 4.99127 25.0182H7.38888C8.23842 25.0182 8.92884 24.3378 8.93499 23.4944L8.9686 23.4833Z" fill="#EFF2F4"/>
</svg>
