<svg width="46" height="46" viewBox="0 0 46 46" fill="none" xmlns="http://www.w3.org/2000/svg">
<path d="M27.798 10.1772C31.6632 10.1772 33.8154 12.4045 33.8154 16.2209V29.1466C33.8154 33.0256 31.6632 35.2028 27.798 35.2028H17.311C13.5071 35.2028 11.2923 33.0256 11.2923 29.1466V16.2209C11.2923 12.4045 13.5071 10.1772 17.311 10.1772H27.798ZM17.6488 27.3698C17.2734 27.3322 16.9106 27.5074 16.7103 27.8328C16.5101 28.1456 16.5101 28.5585 16.7103 28.8838C16.9106 29.1967 17.2734 29.3844 17.6488 29.3343H27.4589C27.9581 29.2842 28.3348 28.8576 28.3348 28.3583C28.3348 27.8453 27.9581 27.4198 27.4589 27.3698H17.6488ZM27.4589 21.6627H17.6488C17.1095 21.6627 16.6728 22.1019 16.6728 22.6399C16.6728 23.178 17.1095 23.6159 17.6488 23.6159H27.4589C27.9969 23.6159 28.4349 23.178 28.4349 22.6399C28.4349 22.1019 27.9969 21.6627 27.4589 21.6627ZM21.3889 15.9956H17.6488V16.0081C17.1095 16.0081 16.6728 16.4461 16.6728 16.9841C16.6728 17.5222 17.1095 17.9601 17.6488 17.9601H21.3889C21.9282 17.9601 22.3661 17.5222 22.3661 16.9704C22.3661 16.4336 21.9282 15.9956 21.3889 15.9956Z" fill="#EFF2F4"/>
</svg>
