<svg width="23" height="26" viewBox="0 0 23 26" fill="none" xmlns="http://www.w3.org/2000/svg">
<path d="M16.798 0.177174C20.6632 0.177174 22.8154 2.40446 22.8154 6.22087V19.1466C22.8154 23.0256 20.6632 25.2028 16.798 25.2028H6.31096C2.50707 25.2028 0.292297 23.0256 0.292297 19.1466V6.22087C0.292297 2.40446 2.50707 0.177174 6.31096 0.177174H16.798ZM6.64881 17.3698C6.27343 17.3322 5.91055 17.5074 5.71035 17.8328C5.51014 18.1456 5.51014 18.5585 5.71035 18.8838C5.91055 19.1967 6.27343 19.3844 6.64881 19.3343H16.4589C16.9581 19.2842 17.3348 18.8576 17.3348 18.3583C17.3348 17.8453 16.9581 17.4198 16.4589 17.3698H6.64881ZM16.4589 11.6627H6.64881C6.10951 11.6627 5.67281 12.1019 5.67281 12.6399C5.67281 13.178 6.10951 13.6159 6.64881 13.6159H16.4589C16.9969 13.6159 17.4349 13.178 17.4349 12.6399C17.4349 12.1019 16.9969 11.6627 16.4589 11.6627ZM10.3889 5.99563H6.64881V6.00815C6.10951 6.00815 5.67281 6.4461 5.67281 6.98415C5.67281 7.5222 6.10951 7.96015 6.64881 7.96015H10.3889C10.9282 7.96015 11.3661 7.5222 11.3661 6.97038C11.3661 6.43358 10.9282 5.99563 10.3889 5.99563Z" fill="#EFF2F4"/>
</svg>
