<svg width="27" height="26" viewBox="0 0 27 26" fill="none" xmlns="http://www.w3.org/2000/svg">
<path d="M11.9191 0.93335C15.0255 0.93335 17.559 3.4234 17.559 6.48904V12.4827H9.92032C9.37289 12.4827 8.94003 12.9081 8.94003 13.4462C8.94003 13.9717 9.37289 14.4097 9.92032 14.4097H17.559V20.3908C17.559 23.4564 15.0255 25.959 11.8936 25.959H5.69361C2.5745 25.959 0.0410156 23.4689 0.0410156 20.4033V6.50155C0.0410156 3.4234 2.58723 0.93335 5.70634 0.93335H11.9191ZM20.7375 9.1295C21.1129 8.7416 21.726 8.7416 22.1014 9.11698L25.7551 12.7582C25.9428 12.9459 26.0429 13.1837 26.0429 13.4464C26.0429 13.6967 25.9428 13.9469 25.7551 14.1221L22.1014 17.7633C21.9137 17.951 21.6634 18.0511 21.4257 18.0511C21.1754 18.0511 20.9252 17.951 20.7375 17.7633C20.3621 17.388 20.3621 16.7748 20.7375 16.3994L22.7395 14.4099H17.5592V12.4829H22.7395L20.7375 10.4934C20.3621 10.118 20.3621 9.50488 20.7375 9.1295Z" fill="white"/>
</svg>
