<svg width="31" height="31" viewBox="0 0 31 31" fill="none" xmlns="http://www.w3.org/2000/svg">
<path d="M20.9767 3.11564C25.2176 3.11564 28.0667 6.09133 28.0667 10.5191V20.7378C28.0667 25.1656 25.2176 28.1413 20.9754 28.1413H10.131C5.89005 28.1413 3.04102 25.1656 3.04102 20.7378V10.5191C3.04102 6.09133 5.89005 3.11564 10.131 3.11564H20.9767ZM22.3565 16.3167C21.0152 15.48 19.9797 16.6551 19.7004 17.0308C19.4311 17.3937 19.1996 17.794 18.9555 18.1943C18.3591 19.1822 17.6758 20.3211 16.4931 20.9835C14.7743 21.9352 13.4695 21.0584 12.5308 20.4205C12.1785 20.1829 11.8362 19.9582 11.4952 19.8084C10.6547 19.4456 9.89851 19.8588 8.77614 21.2844C8.18728 22.0295 7.60345 22.7681 7.01206 23.5042C6.65849 23.9445 6.7428 24.6237 7.21968 24.9182C7.98092 25.3869 8.90952 25.6387 9.95891 25.6387H20.5044C21.0995 25.6387 21.696 25.5574 22.2647 25.3714C23.5456 24.953 24.5623 23.9949 25.0933 22.7294C25.5412 21.6653 25.7589 20.374 25.3399 19.2997C25.2002 18.9433 24.9913 18.6114 24.6982 18.3196C23.9294 17.5564 23.2109 16.8436 22.3565 16.3167ZM11.1729 8.12077C9.44785 8.12077 8.04614 9.52437 8.04614 11.249C8.04614 12.9736 9.44785 14.3772 11.1729 14.3772C12.8967 14.3772 14.2997 12.9736 14.2997 11.249C14.2997 9.52437 12.8967 8.12077 11.1729 8.12077Z" fill="#EFF2F4"/>
</svg>
