<svg width="31" height="31" viewBox="0 0 31 31" fill="none" xmlns="http://www.w3.org/2000/svg">
<path d="M16.4511 3.30038C17.3974 3.30038 18.2542 3.82592 18.7273 4.60171C18.9575 4.97709 19.1109 5.44007 19.0726 5.92807C19.047 6.30345 19.1621 6.67884 19.3667 7.0292C20.0189 8.09279 21.4639 8.4932 22.5892 7.89258C23.8551 7.16684 25.4536 7.60479 26.1825 8.84356L27.0392 10.3201C27.7809 11.5588 27.3717 13.148 26.093 13.8612C25.006 14.4994 24.6224 15.9133 25.2746 16.9894C25.4792 17.3272 25.7093 17.615 26.0674 17.7902C26.515 18.028 26.8602 18.4034 27.1032 18.7787C27.5763 19.5545 27.538 20.5055 27.0776 21.3439L26.1825 22.8454C25.7093 23.6462 24.827 24.1467 23.9191 24.1467C23.4715 24.1467 22.9728 24.0216 22.5636 23.7714C22.2311 23.5586 21.8475 23.4836 21.4383 23.4836C20.1723 23.4836 19.1109 24.5221 19.0726 25.7609C19.0726 27.1999 17.8961 28.326 16.4256 28.326H14.6865C13.2031 28.326 12.0266 27.1999 12.0266 25.7609C12.0011 24.5221 10.9397 23.4836 9.67372 23.4836C9.25173 23.4836 8.86811 23.5586 8.54842 23.7714C8.13922 24.0216 7.62771 24.1467 7.19293 24.1467C6.27223 24.1467 5.38989 23.6462 4.91675 22.8454L4.03441 21.3439C3.56127 20.5305 3.53569 19.5545 4.00883 18.7787C4.21343 18.4034 4.59706 18.028 5.03184 17.7902C5.38989 17.615 5.62006 17.3272 5.83745 16.9894C6.47683 15.9133 6.0932 14.4994 5.00626 13.8612C3.74029 13.148 3.33109 11.5588 4.05998 10.3201L4.91675 8.84356C5.65843 7.60479 7.24409 7.16684 8.52284 7.89258C9.63536 8.4932 11.0804 8.09279 11.7325 7.0292C11.9371 6.67884 12.0522 6.30345 12.0266 5.92807C12.0011 5.44007 12.1417 4.97709 12.3847 4.60171C12.8578 3.82592 13.7146 3.3254 14.6481 3.30038H16.4511ZM15.5688 12.2846C13.5611 12.2846 11.9371 13.8612 11.9371 15.8257C11.9371 17.7902 13.5611 19.3543 15.5688 19.3543C17.5764 19.3543 19.1621 17.7902 19.1621 15.8257C19.1621 13.8612 17.5764 12.2846 15.5688 12.2846Z" fill="#EFF2F4"/>
</svg>
