<svg width="15" height="15" viewBox="0 0 15 15" fill="none" xmlns="http://www.w3.org/2000/svg">
<path d="M7.6428 3.63706C5.6553 3.63706 4.05217 5.24019 4.05217 7.22769C4.05217 9.21518 5.6553 10.8183 7.6428 10.8183C9.6303 10.8183 11.2334 9.21518 11.2334 7.22769C11.2334 5.24019 9.6303 3.63706 7.6428 3.63706ZM7.6428 9.56206C6.35842 9.56206 5.30842 8.51518 5.30842 7.22769C5.30842 5.94019 6.3553 4.89331 7.6428 4.89331C8.9303 4.89331 9.97717 5.94019 9.97717 7.22769C9.97717 8.51518 8.92717 9.56206 7.6428 9.56206ZM12.2178 3.49019C12.2178 3.95581 11.8428 4.32769 11.3803 4.32769C10.9147 4.32769 10.5428 3.95269 10.5428 3.49019C10.5428 3.02769 10.9178 2.65269 11.3803 2.65269C11.8428 2.65269 12.2178 3.02769 12.2178 3.49019ZM14.5959 4.34019C14.5428 3.21831 14.2865 2.22456 13.4647 1.40581C12.6459 0.58706 11.6522 0.330811 10.5303 0.274561C9.37405 0.208936 5.90842 0.208936 4.75217 0.274561C3.63342 0.327686 2.63967 0.583935 1.8178 1.40269C0.995923 2.22144 0.742798 3.21519 0.686548 4.33706C0.620923 5.49331 0.620923 8.95893 0.686548 10.1152C0.739673 11.2371 0.995923 12.2308 1.8178 13.0496C2.63967 13.8683 3.6303 14.1246 4.75217 14.1808C5.90842 14.2464 9.37405 14.2464 10.5303 14.1808C11.6522 14.1277 12.6459 13.8714 13.4647 13.0496C14.2834 12.2308 14.5397 11.2371 14.5959 10.1152C14.6615 8.95893 14.6615 5.49644 14.5959 4.34019ZM13.1022 11.3558C12.8584 11.9683 12.3865 12.4402 11.7709 12.6871C10.849 13.0527 8.66155 12.9683 7.6428 12.9683C6.62405 12.9683 4.43342 13.0496 3.51467 12.6871C2.90217 12.4433 2.4303 11.9714 2.18342 11.3558C1.8178 10.4339 1.90217 8.24643 1.90217 7.22769C1.90217 6.20894 1.82092 4.01831 2.18342 3.09956C2.42717 2.48706 2.89905 2.01519 3.51467 1.76831C4.43655 1.40269 6.62405 1.48706 7.6428 1.48706C8.66155 1.48706 10.8522 1.40581 11.7709 1.76831C12.3834 2.01206 12.8553 2.48394 13.1022 3.09956C13.4678 4.02144 13.3834 6.20894 13.3834 7.22769C13.3834 8.24643 13.4678 10.4371 13.1022 11.3558Z" fill="black"/>
</svg>
