<svg width="17" height="14" viewBox="0 0 17 14" fill="none" xmlns="http://www.w3.org/2000/svg">
<path d="M15.1431 3.97146C15.1525 4.11208 15.1525 4.25583 15.1525 4.39646C15.1525 8.73083 11.8525 13.7277 5.82124 13.7277C3.96187 13.7277 2.23687 13.1902 0.786865 12.2558C1.04937 12.2871 1.30562 12.2965 1.57749 12.2965C3.11186 12.2965 4.52124 11.7777 5.64937 10.8965C4.20874 10.8652 2.99937 9.92146 2.58374 8.62146C2.78687 8.65271 2.98999 8.67146 3.20249 8.67146C3.49624 8.67146 3.78999 8.63083 4.06499 8.55896C2.56187 8.25583 1.43687 6.93396 1.43687 5.34021V5.29958C1.87437 5.54333 2.38062 5.69646 2.91812 5.71521C2.03374 5.12771 1.45562 4.12146 1.45562 2.98396C1.45562 2.37458 1.61812 1.81521 1.90249 1.32771C3.51812 3.31833 5.94311 4.61833 8.66499 4.75896C8.61499 4.51521 8.58374 4.26208 8.58374 4.00896C8.58374 2.20271 10.0462 0.730835 11.8619 0.730835C12.8056 0.730835 13.6587 1.12771 14.2587 1.76521C14.9994 1.62458 15.7119 1.34958 16.34 0.974585C16.0962 1.73708 15.5775 2.37458 14.8994 2.78083C15.5587 2.70896 16.1994 2.52771 16.7869 2.27458C16.34 2.92458 15.7806 3.50271 15.1431 3.97146Z" fill="black"/>
</svg>
